HIERARCHY
ROOT Hips
{
	OFFSET	0.00	0.00	0.00
	CHANNELS 6 Xposition Yposition Zposition Zrotation Xrotation Yrotation
	JOINT LeftUpLeg
	{
		OFFSET	 0.126116	-0.014019	-0.065224
		CHANNELS 3 Zrotation Xrotation Yrotation
		JOINT LeftLeg
		{
			OFFSET	 0.000000	 0.000000	 0.569914
			CHANNELS 3 Zrotation Xrotation Yrotation
			JOINT LeftFoot
			{
				OFFSET	 0.000000	 0.000000	 0.544423
				CHANNELS 3 Zrotation Xrotation Yrotation
				JOINT LeftToeBase
				{
					OFFSET	 0.000000	 0.000000	 0.207117
					CHANNELS 3 Zrotation Xrotation Yrotation
					End Site
					{
						OFFSET	 0.000000	 0.000000	 0.207117
					}
				}
			}
		}
	}
	JOINT RightUpLeg
	{
		OFFSET	-0.124023	-0.008373	-0.065224
		CHANNELS 3 Zrotation Xrotation Yrotation
		JOINT RightLeg
		{
			OFFSET	 0.000000	 0.000000	 0.570047
			CHANNELS 3 Zrotation Xrotation Yrotation
			JOINT RightFoot
			{
				OFFSET	 0.000000	 0.000000	 0.544354
				CHANNELS 3 Zrotation Xrotation Yrotation
				JOINT RightToeBase
				{
					OFFSET	 0.000000	 0.000000	 0.207540
					CHANNELS 3 Zrotation Xrotation Yrotation
					End Site
					{
						OFFSET	 0.000000	 0.000000	 0.207540
					}
				}
			}
		}
	}
	JOINT Spine
	{
		OFFSET	 0.000184	-0.007763	 0.117403
		CHANNELS 3 Zrotation Xrotation Yrotation
		JOINT Spine1
		{
			OFFSET	 0.000000	 0.000000	 0.137269
			CHANNELS 3 Zrotation Xrotation Yrotation
			JOINT Spine2
			{
				OFFSET	 0.000000	 0.000000	 0.156879
				CHANNELS 3 Zrotation Xrotation Yrotation
				JOINT LeftShoulder
				{
					OFFSET	 0.080501	-0.002496	 0.160144
					CHANNELS 3 Zrotation Xrotation Yrotation
					JOINT LeftArm
					{
						OFFSET	 0.000000	 0.000000	 0.164363
						CHANNELS 3 Zrotation Xrotation Yrotation
						JOINT LeftForeArm
						{
							OFFSET	 0.000000	 0.000000	 0.364576
							CHANNELS 3 Zrotation Xrotation Yrotation
							JOINT LeftHand
							{
								OFFSET	 0.000000	 0.000000	 0.360812
								CHANNELS 3 Zrotation Xrotation Yrotation
								JOINT LeftHandIndex1
								{
									OFFSET	 0.000000	 0.000000	 0.086006
									CHANNELS 3 Zrotation Xrotation Yrotation
									JOINT LeftHandIndex2
									{
										OFFSET	 0.000000	 0.000000	 0.047236
										CHANNELS 3 Zrotation Xrotation Yrotation
										JOINT LeftHandIndex3
										{
											OFFSET	-0.004284	-0.000551	 0.038166
											CHANNELS 3 Zrotation Xrotation Yrotation
											End Site
											{
												OFFSET	-0.004284	-0.000551	 0.038166
											}
										}
									}
								}
							}
						}
					}
				}
				JOINT Neck
				{
					OFFSET	 0.000000	 0.000000	 0.176489
					CHANNELS 3 Zrotation Xrotation Yrotation
					JOINT Head
					{
						OFFSET	 0.000000	-0.001747	 0.077940
						CHANNELS 3 Zrotation Xrotation Yrotation
						End Site
						{
							OFFSET	 0.000000	-0.001747	 0.077940
						}
					}
				}
				JOINT RightShoulder
				{
					OFFSET	-0.080363	 0.000306	 0.159706
					CHANNELS 3 Zrotation Xrotation Yrotation
					JOINT RightArm
					{
						OFFSET	 0.000000	 0.000000	 0.164196
						CHANNELS 3 Zrotation Xrotation Yrotation
						JOINT RightForeArm
						{
							OFFSET	 0.000000	 0.000000	 0.365611
							CHANNELS 3 Zrotation Xrotation Yrotation
							JOINT RightHand
							{
								OFFSET	 0.000000	 0.000000	 0.360648
								CHANNELS 3 Zrotation Xrotation Yrotation
								JOINT RightHandIndex1
								{
									OFFSET	 0.000000	 0.000000	 0.069977
									CHANNELS 3 Zrotation Xrotation Yrotation
									JOINT RightHandIndex2
									{
										OFFSET	 0.000000	 0.000000	 0.052305
										CHANNELS 3 Zrotation Xrotation Yrotation
										JOINT RightHandIndex3
										{
											OFFSET	 0.009002	-0.000782	 0.042196
											CHANNELS 3 Zrotation Xrotation Yrotation
											End Site
											{
												OFFSET	 0.009002	-0.000782	 0.042196
											}
										}
									}
								}
							}
						}
					}
				}
			}
		}
	}
}
MOTION
Frames:    4
Frame Time: 0.03333334
 0.570728	-0.453382	-0.393923	 101.899100	 0.629159	 3.629183	 5.054101	-3.851277	 176.453900	-11.471370	-34.774340	-5.465343	 171.957400	 86.746460	 179.302800	-2.378056	 30.067720	-0.035304	 1.826942	-12.599000	 178.811400	 3.904574	-49.401400	 6.138484	-175.041100	 82.257120	-179.007100	 2.403663	 22.147670	-0.130123	-6.081477	 1.296589	-1.938630	-9.144496	-1.149364	-0.715478	-10.534890	-3.063134	-0.979303	-91.809220	 77.655660	 179.104100	 43.360770	 72.927220	-46.198230	-9.405489	-4.114209	-20.530690	 4.578278	-16.485040	-5.558590	-3.812334	 37.924440	-2.927599	-2.450526	 36.184240	 0.754587	-1.378229	 35.397820	-2.634230	 0.598856	 6.579636	-3.286468	-2.332902	-14.308190	-2.264040	 89.766860	 79.220090	-179.663400	-42.847270	 73.346280	 45.033640	 4.476372	-9.020035	 32.459930	-10.312660	-17.311570	 10.042500	 6.437017	 35.671460	-0.771858	 2.830251	 35.756010	-7.813440	-2.350882	 35.473990	 5.254307
 0.584486	-0.449499	-0.398370	 98.018540	 0.660062	 3.703193	 5.054150	-3.973707	 176.477000	-11.252170	-33.734560	-5.159419	 171.897800	 86.594290	 179.441100	-2.377658	 30.144640	-0.037005	 1.766893	-12.660800	 178.945400	 3.656235	-47.623460	 5.718568	-175.358200	 82.125810	-178.699900	 2.403733	 22.109180	-0.130906	-6.088420	 1.369068	-2.010198	-9.139927	-1.110008	-0.729772	-10.560400	-2.937130	-0.970126	-91.809790	 77.621080	 179.121200	 36.792630	 69.876860	-39.835540	-7.981352	-3.994236	-19.848630	 4.513965	-16.484000	-5.565782	-3.812334	 37.924440	-2.927599	-2.450526	 36.184240	 0.754587	-1.378229	 35.397820	-2.634230	 0.543274	 6.074235	-3.202791	-2.383297	-13.512600	-2.337778	 89.765500	 79.255070	-179.645800	-36.427720	 70.323200	 39.114410	 4.232519	-7.820316	 30.746970	-8.811938	-17.317560	 10.047400	 6.437017	 35.671460	-0.771858	 2.830251	 35.756010	-7.813440	-2.350882	 35.473990	 5.254307
 0.585382	-0.448526	-0.398686	 98.174350	 0.694063	 3.693776	 5.040723	-4.074852	 176.494600	-11.175070	-33.862780	-5.141069	 171.978700	 86.461220	 179.422000	-2.376955	 30.278280	-0.039963	 1.765056	-12.708060	 178.985500	 3.678368	-47.720500	 5.749897	-175.559300	 81.963340	-178.491700	 2.403629	 22.164630	-0.129784	-6.120467	 1.404043	-2.042287	-9.169283	-1.099882	-0.723436	-10.617550	-2.924309	-0.974223	-91.809790	 77.598810	 179.141700	 36.666790	 69.862140	-39.652830	-8.041147	-4.009316	-20.106550	 4.438989	-16.489350	-5.575521	-3.812334	 37.924440	-2.927599	-2.450526	 36.184240	 0.754587	-1.378229	 35.397820	-2.634230	 0.486301	 6.015791	-3.216908	-2.440765	-13.425650	-2.325191	 89.764930	 79.274900	-179.641800	-36.341710	 70.390400	 39.074570	 4.282081	-7.776805	 30.516890	-8.809646	-17.324770	 10.056250	 6.437017	 35.671460	-0.771858	 2.830251	 35.756010	-7.813440	-2.350882	 35.473990	 5.254307
 0.579590	-0.448334	-0.399042	 98.310760	 0.743772	 3.722740	 5.024242	-4.197999	 176.514100	-11.086970	-34.027490	-5.123373	 171.976400	 86.307580	 179.493400	-2.376340	 30.393250	-0.042516	 1.796911	-12.780020	 178.974600	 3.756472	-47.895920	 5.849398	-175.783900	 81.758020	-178.217200	 2.403621	 22.171500	-0.129646	-6.161539	 1.408692	-2.083752	-9.179298	-1.095456	-0.744493	-10.646020	-2.923589	-0.976783	-91.809480	 77.595150	 179.152400	 36.601550	 69.823480	-39.585780	-8.112985	-4.015207	-20.363380	 4.333832	-16.499590	-5.590410	-3.812334	 37.924440	-2.927599	-2.450526	 36.184240	 0.754587	-1.378229	 35.397820	-2.634230	 0.465261	 5.899560	-3.340157	-2.449591	-13.303560	-2.169394	 89.764370	 79.278870	-179.630000	-36.272970	 70.443980	 39.030430	 4.315591	-7.727179	 30.284930	-8.790193	-17.337000	 10.070170	 6.437017	 35.671460	-0.771858	 2.830251	 35.756010	-7.813440	-2.350882	 35.473990	 5.254307
